<?xml version="1.0" encoding="utf-8"?>
<!-- Generator: Adobe Illustrator 16.0.0, SVG Export Plug-In . SVG Version: 6.00 Build 0)  -->
<!DOCTYPE svg PUBLIC "-//W3C//DTD SVG 1.1//EN" "http://www.w3.org/Graphics/SVG/1.1/DTD/svg11.dtd">
<svg version="1.1" id="_x30_" xmlns="http://www.w3.org/2000/svg" xmlns:xlink="http://www.w3.org/1999/xlink" x="0px" y="0px"
	 width="1204.721px" height="732.756px" viewBox="0 0 1204.721 732.756" enable-background="new 0 0 1204.721 732.756"
	 xml:space="preserve">
<g>
	<path fill="#FFFFFF" d="M279.592,310.124c2.54,0,4.671,0.544,6.167,1.27l0.953-3.22c-1.043-0.544-3.447-1.359-7.256-1.359
		c-9.479,0-15.963,6.484-15.963,16.053c0,10.021,6.484,15.464,15.101,15.464c3.719,0,6.621-0.726,8.072-1.451l-0.816-3.129
		c-1.587,0.771-4.036,1.271-6.438,1.271c-7.438,0-11.746-4.808-11.746-12.29C267.665,314.705,272.427,310.124,279.592,310.124z"/>
	<path fill="#FFFFFF" d="M294.968,320.237h-0.182l-0.137-4.31h-3.491c0.136,2.041,0.182,4.264,0.182,6.849v15.101h3.945v-11.7
		c0-0.68,0.091-1.314,0.181-1.858c0.544-2.993,2.54-5.124,5.352-5.124c0.544,0,0.952,0.045,1.36,0.136v-3.764
		c-0.363-0.092-0.68-0.137-1.134-0.137C298.369,315.43,295.966,317.29,294.968,320.237z"/>
	<path fill="#FFFFFF" d="M321.363,324.409c0-4.399-1.632-8.979-8.344-8.979c-2.766,0-5.396,0.771-7.21,1.95l0.907,2.63
		c1.542-0.998,3.673-1.632,5.714-1.632c4.49,0,4.988,3.265,4.988,5.079v0.453c-8.48-0.045-13.196,2.856-13.196,8.163
		c0,3.174,2.267,6.304,6.711,6.304c3.129,0,5.487-1.542,6.712-3.265h0.136l0.317,2.766h3.628c-0.271-1.497-0.363-3.355-0.363-5.261
		V324.409L321.363,324.409z M317.508,330.486c0,0.407-0.091,0.861-0.228,1.27c-0.635,1.859-2.448,3.673-5.306,3.673
		c-2.041,0-3.764-1.225-3.764-3.81c0-4.263,4.942-5.034,9.296-4.943L317.508,330.486L317.508,330.486z"/>
	<path fill="#FFFFFF" d="M336.421,308.401c1.134,0,1.95,0.227,2.54,0.499l0.544-3.084c-0.771-0.317-1.996-0.635-3.401-0.635
		c-1.858,0-3.854,0.589-5.351,2.041c-1.859,1.77-2.54,4.581-2.54,7.664v1.043h-3.084v3.039h3.084v18.911h3.944v-18.911h5.307v-3.039
		h-5.307v-1.179C332.157,311.394,333.02,308.401,336.421,308.401z"/>
	<path fill="#FFFFFF" d="M346.353,309.625l-3.899,1.043v5.26h-3.401v3.039h3.401v11.973c0,2.585,0.407,4.534,1.542,5.714
		c0.951,1.088,2.448,1.678,4.308,1.678c1.542,0,2.767-0.227,3.538-0.544l-0.182-2.993c-0.499,0.136-1.271,0.272-2.313,0.272
		c-2.222,0-2.993-1.542-2.993-4.264v-11.836h5.714v-3.039h-5.714V309.625z"/>
	<path fill="#FFFFFF" d="M368.077,315.43c-3.537,0-6.077,1.587-7.482,4.036h-0.091V305.68h-3.945v26.529
		c0,1.95-0.091,4.172-0.182,5.668h3.446l0.182-3.628h0.136c1.632,2.902,4.172,4.127,7.347,4.127c4.897,0,9.842-3.9,9.842-11.746
		C377.374,319.965,373.519,315.43,368.077,315.43z M366.671,335.202c-2.902,0-5.215-1.904-5.986-4.671
		c-0.091-0.453-0.182-0.952-0.182-1.451v-3.945c0-0.635,0.136-1.179,0.227-1.632c0.816-3.039,3.356-4.897,6.077-4.897
		c4.263,0,6.53,3.764,6.53,8.162C373.338,331.801,370.844,335.202,366.671,335.202z"/>
	<path fill="#FFFFFF" d="M391.66,315.43c-6.077,0-10.885,4.309-10.885,11.655c0,6.938,4.581,11.292,10.521,11.292
		c5.306,0,10.929-3.538,10.929-11.655C402.227,320.01,397.964,315.43,391.66,315.43z M391.479,335.384
		c-3.899,0-6.667-3.628-6.667-8.435c0-4.172,2.041-8.525,6.757-8.525c4.717,0,6.575,4.716,6.575,8.436
		C398.145,331.801,395.288,335.384,391.479,335.384z"/>
	<path fill="#FFFFFF" d="M412.071,309.625l-3.899,1.043v5.26h-3.401v3.039h3.401v11.973c0,2.585,0.407,4.534,1.542,5.714
		c0.952,1.088,2.448,1.678,4.308,1.678c1.542,0,2.767-0.227,3.537-0.544l-0.181-2.993c-0.499,0.136-1.271,0.272-2.313,0.272
		c-2.222,0-2.993-1.542-2.993-4.264v-11.836h5.714v-3.039h-5.714V309.625z"/>
	<rect x="432.026" y="307.313" fill="#FFFFFF" width="3.946" height="30.565"/>
	<path fill="#FFFFFF" d="M451.255,307.086c-3.129,0-5.986,0.272-8.39,0.635v30.066c1.995,0.227,4.354,0.363,7.165,0.363
		c5.94,0,10.657-1.542,13.515-4.399c2.856-2.812,4.398-6.893,4.398-11.881c0-4.943-1.587-8.48-4.308-10.976
		C460.96,308.401,456.924,307.086,451.255,307.086z M450.802,334.976c-1.542,0-2.993-0.045-3.991-0.227v-24.126
		c1.043-0.227,2.585-0.408,4.625-0.408c8.344,0,12.426,4.581,12.38,11.791C463.817,330.259,459.237,334.976,450.802,334.976z"/>
	<polygon fill="#FFFFFF" points="477.017,323.548 488.898,323.548 488.898,320.282 477.017,320.282 477.017,310.623 
		489.577,310.623 489.577,307.313 473.071,307.313 473.071,337.878 490.259,337.878 490.259,334.567 477.017,334.567 	"/>
	<path fill="#FFFFFF" d="M516.472,307.313h-4.535l-4.172,7.165c-1.133,1.95-1.904,3.356-2.766,5.171h-0.137
		c-0.815-1.633-1.678-3.175-2.812-5.171l-4.036-7.165h-4.58l8.979,15.103l-9.342,15.464h4.535l3.673-6.712
		c1.587-2.675,2.449-4.308,3.312-6.077h0.091c0.952,1.77,1.95,3.447,3.537,6.032l3.899,6.757h4.581l-9.522-15.691L516.472,307.313z"
		/>
	<path fill="#FFFFFF" d="M551.984,307.313h-4.535l-4.172,7.165c-1.134,1.95-1.904,3.356-2.766,5.171h-0.136
		c-0.816-1.633-1.679-3.175-2.813-5.171l-4.036-7.165h-4.58l8.979,15.103l-9.342,15.464h4.534l3.674-6.712
		c1.587-2.675,2.448-4.308,3.311-6.077h0.091c0.952,1.77,1.95,3.447,3.537,6.032l3.9,6.757h4.581l-9.523-15.691L551.984,307.313z"/>
	<polygon fill="#FFFFFF" points="560.74,334.567 560.74,307.313 556.794,307.313 556.794,337.878 573.8,337.878 573.8,334.567 	"/>
</g>
</svg>
